<?xml version="1.0" encoding="utf-8"?>
<!-- Generator: Adobe Illustrator 16.0.0, SVG Export Plug-In . SVG Version: 6.00 Build 0)  -->
<!DOCTYPE svg PUBLIC "-//W3C//DTD SVG 1.1//EN" "http://www.w3.org/Graphics/SVG/1.1/DTD/svg11.dtd">
<svg version="1.1" xmlns="http://www.w3.org/2000/svg" xmlns:xlink="http://www.w3.org/1999/xlink" x="0px" y="0px"
   width="366.379px" height="600px" viewBox="0 0 366.379 600" enable-background="new 0 0 366.379 600" xml:space="preserve">
  <path fill="#ED1C24" d="M170.896,567.777c-116.989,0-183.352-127.971-88.624-219.226c78.987-76.091,47.217-137.761,44.476-149.438
    c-3.499-14.901-2.939-14.94,2.094-6.875c14.56,23.327,49.028,96.281,21.879,136.169c-20.663,30.36-25.454,88.021,29.374,86.91
    c59.905-1.215,32.429-64.396,18.817-110.188C171.409,212.605,248.054,95.34,327.998,47.789c5.792-3.444-91.155,84.096-86.187,162.5
    c5.649,89.147,87.43,123.635,87.43,232.173c0,52.041-48.378,123.193-144.951,125.266
    C184.29,567.728,177.04,567.777,170.896,567.777z M183.107,544.34c50.69-1.661,200.747-47.067,77.268-227.026
    c-47.499-69.224-37.482-96.36-40.447-84.996c-4.145,15.889-9.388,45.682,10.347,103.27c19.275,56.247,0.753,103.545-53.511,101.884
    c-54.265-1.661-69.408-32.851-54.195-95.224c2.975-12.198-5.188,0.662-39.384,40.128C33.376,439.856,57.223,544.34,171.226,544.34
    C175.379,544.34,183.107,544.34,183.107,544.34z"/>
</svg>
